<?xml version="1.0" encoding="utf-8"?>
<svg version="1.1" xmlns:xlink="http://www.w3.org/1999/xlink" width="37px" height="39px" xmlns="http://www.w3.org/2000/svg">
  <g transform="matrix(1 0 0 1 -948 -110 )">
    <path d="M 36.069972826087 17.2471116816431  C 36.689990942029 17.8311938382542  37 18.5821566110398  37 19.5  C 37 20.4011553273428  36.689990942029 21.1604621309371  36.069972826087 21.7779204107831  L 19.7065217391304 38.0738125802311  C 19.0529891304348 38.691270860077  18.2905344202899 39  17.4191576086957 39  C 16.5645380434783 39  15.8104619565217 38.691270860077  15.1569293478261 38.0738125802311  L 13.2717391304348 36.196405648267  C 12.6349637681159 35.5622593068036  12.3165760869565 34.8029525032092  12.3165760869565 33.918485237484  C 12.3165760869565 33.0340179717587  12.6349637681159 32.2747111681643  13.2717391304348 31.6405648267009  L 20.6365489130435 24  L 2.94089673913044 24  C 2.06951992753623 24.306161745828  1.36152626811594 23.9932605905006  0.816915760869565 23.367458279846  C 0.272305253623188 22.7416559691913  0 21.9865211810013  0 21.102053915276  L 0 17.897946084724  C 0 17.0134788189987  0.272305253623188 16.2583440308087  0.816915760869565 15.632541720154  C 1.36152626811594 15.0067394094994  2.06951992753623 14.693838254172  2.94089673913044 15  L 20.6365489130435 15  L 13.2717391304348 7.33440308087292  C 12.6349637681159 6.73363286264442  12.3165760869565 5.9826700898588  12.3165760869565 5.08151476251605  C 12.3165760869565 4.1803594351733  12.6349637681159 3.42939666238768  13.2717391304348 2.82862644415918  L 15.1569293478261 0.951219512195123  C 15.7937047101449 0.317073170731705  16.5477807971014 0  17.4191576086957 0  C 18.3072916666667 0  19.0697463768116 0.317073170731705  19.7065217391304 0.951219512195123  L 36.069972826087 17.2471116816431  Z " fill-rule="nonzero" fill="#ffffff" stroke="none" transform="matrix(1 0 0 1 948 110 )" />
  </g>
</svg>