<?xml version="1.0" encoding="utf-8"?>
<svg version="1.1" xmlns:xlink="http://www.w3.org/1999/xlink" width="37px" height="39px" xmlns="http://www.w3.org/2000/svg">
  <g transform="matrix(1 0 0 1 -13 -110 )">
    <path d="M 36.1830842391304 15.632541720154  C 36.7276947463768 16.2583440308087  37 17.0134788189987  37 17.897946084724  L 37 21.102053915276  C 37 21.9865211810013  36.7276947463768 22.7416559691913  36.1830842391304 23.367458279846  C 35.6384737318841 23.9932605905006  34.9304800724638 24.306161745828  34.0591032608696 24  L 16.3634510869565 24  L 23.7282608695652 31.6655969191271  C 24.3650362318841 32.2663671373556  24.6834239130435 33.0173299101412  24.6834239130435 33.918485237484  C 24.6834239130435 34.8196405648267  24.3650362318841 35.5706033376123  23.7282608695652 36.1713735558408  L 21.8430706521739 38.0738125802311  C 21.2230525362319 38.691270860077  20.4689764492754 39  19.5808423913043 39  C 18.7094655797101 39  17.9470108695652 38.691270860077  17.2934782608696 38.0738125802311  L 0.930027173913043 21.7528883183569  C 0.310009057971015 21.1354300385109  0 20.3844672657253  0 19.5  C 0 18.6322207958922  0.310009057971015 17.8729139922978  0.930027173913043 17.2220795892169  L 17.2934782608696 0.951219512195123  C 17.9302536231884 0.317073170731705  18.6927083333333 0  19.5808423913043 0  C 20.4522192028986 0  21.2062952898551 0.317073170731705  21.8430706521739 0.951219512195123  L 23.7282608695652 2.80359435173299  C 24.3650362318841 3.4377406931964  24.6834239130435 4.19704749679075  24.6834239130435 5.08151476251605  C 24.6834239130435 5.96598202824133  24.3650362318841 6.72528883183568  23.7282608695652 7.3594351732991  L 16.3634510869565 15  L 34.0591032608696 15  C 34.9304800724638 14.693838254172  35.6384737318841 15.0067394094994  36.1830842391304 15.632541720154  Z " fill-rule="nonzero" fill="#ffffff" stroke="none" transform="matrix(1 0 0 1 13 110 )" />
  </g>
</svg>