<?xml version="1.0" encoding="utf-8"?>
<svg version="1.1" xmlns:xlink="http://www.w3.org/1999/xlink" width="17px" height="17px" xmlns="http://www.w3.org/2000/svg">
  <g transform="matrix(1 0 0 1 -150 1 )">
    <path d="M 12.6219308035714 13.3181423611111  C 13.8899739583333 12.1228298611111  14.944568452381 10.5167824074074  15.7857142857143 8.5  C 14.8244047619048 6.17824074074074  13.6196056547619 4.44184027777778  12.1713169642857 3.29079861111111  C 12.5571056547619 4.31394675925926  12.75 5.42071759259259  12.75 6.61111111111111  C 12.75 8.43113425925926  12.3341703869048 9.98799189814815  11.5025111607143 11.2816840277778  C 10.6708519345238 12.5753761574074  9.67001488095238 13.2222222222222  8.5 13.2222222222222  C 7.32998511904762 13.2222222222222  6.32914806547619 12.5753761574074  5.49748883928571 11.2816840277778  C 4.66582961309524 9.98799189814815  4.25 8.43113425925926  4.25 6.61111111111111  C 4.25 5.42071759259259  4.4428943452381 4.31394675925926  4.82868303571429 3.29079861111111  C 3.3803943452381 4.44184027777778  2.17559523809524 6.17824074074074  1.21428571428571 8.5  C 2.05543154761905 10.5167824074074  3.11002604166667 12.1228298611111  4.37806919642857 13.3181423611111  C 5.64611235119048 14.5134548611111  7.02008928571429 15.1111111111111  8.5 15.1111111111111  C 9.97991071428571 15.1111111111111  11.3538876488095 14.5134548611111  12.6219308035714 13.3181423611111  Z M 8.82254464285714 3.33506944444444  C 8.91108630952381 3.19733796296296  8.95535714285714 3.03009259259259  8.95535714285714 2.83333333333333  C 8.95535714285714 2.63657407407407  8.91108630952381 2.4693287037037  8.82254464285714 2.33159722222222  C 8.73400297619048 2.19386574074074  8.62648809523809 2.125  8.5 2.125  C 7.70944940476191 2.125  7.03115699404762 2.56524884259259  6.46512276785714 3.44574652777778  C 5.89908854166667 4.32624421296296  5.61607142857143 5.38136574074074  5.61607142857143 6.61111111111111  C 5.61607142857143 6.80787037037037  5.66034226190476 6.97511574074074  5.74888392857143 7.11284722222222  C 5.8374255952381 7.2505787037037  5.94494047619048 7.31944444444444  6.07142857142857 7.31944444444444  C 6.19791666666667 7.31944444444444  6.30543154761905 7.2505787037037  6.39397321428571 7.11284722222222  C 6.48251488095238 6.97511574074074  6.52678571428571 6.80787037037037  6.52678571428571 6.61111111111111  C 6.52678571428571 5.7650462962963  6.71968005952381 5.04195601851852  7.10546875 4.44184027777778  C 7.49125744047619 3.84172453703704  7.95610119047619 3.54166666666667  8.5 3.54166666666667  C 8.62648809523809 3.54166666666667  8.73400297619048 3.47280092592592  8.82254464285714 3.33506944444444  Z M 16.8102678571429 7.48177083333333  C 16.936755952381 7.82609953703704  17 8.16550925925926  17 8.5  C 17 8.83449074074074  16.936755952381 9.17390046296296  16.8102678571429 9.51822916666667  C 15.9248511904762 11.7809606481481  14.7342819940476 13.5936053240741  13.2385602678571 14.9561631944444  C 11.7428385416667 16.3187210648148  10.163318452381 17  8.5 17  C 6.83668154761905 17  5.25716145833333 16.3162615740741  3.76143973214286 14.9487847222222  C 2.26571800595238 13.5813078703704  1.07514880952381 11.7711226851852  0.189732142857143 9.51822916666667  C 0.0632440476190476 9.17390046296296  0 8.83449074074074  0 8.5  C 0 8.16550925925926  0.0632440476190476 7.82609953703704  0.189732142857143 7.48177083333333  C 1.07514880952381 5.22887731481481  2.26571800595238 3.41869212962963  3.76143973214286 2.05121527777778  C 5.25716145833333 0.683738425925925  6.83668154761905 0  8.5 0  C 10.163318452381 0  11.7428385416667 0.683738425925925  13.2385602678571 2.05121527777778  C 14.7342819940476 3.41869212962963  15.9248511904762 5.22887731481481  16.8102678571429 7.48177083333333  Z " fill-rule="nonzero" fill="#000000" stroke="none" transform="matrix(1 0 0 1 150 -1 )" />
  </g>
</svg>