<?xml version="1.0" encoding="utf-8"?>
<svg version="1.1" xmlns:xlink="http://www.w3.org/1999/xlink" width="17px" height="17px" xmlns="http://www.w3.org/2000/svg">
  <g transform="matrix(1 0 0 1 -150 1 )">
    <path d="M 1.21428571428571 8.5  C 2.27046130952381 10.6755952380952  3.62072172619048 12.2566964285714  5.26506696428571 13.2433035714286  L 6.00502232142857 11.4598214285714  C 5.45479910714286 10.9285714285714  5.02473958333333 10.2581845238095  4.71484375 9.44866071428571  C 4.40494791666667 8.63913690476191  4.25 7.78323412698413  4.25 6.88095238095238  C 4.25 5.86061507936508  4.4428943452381 4.91195436507936  4.82868303571429 4.03497023809524  C 3.3803943452381 5.02157738095238  2.17559523809524 6.50992063492063  1.21428571428571 8.5  Z M 8.82254464285714 4.07291666666667  C 8.91108630952381 3.95486111111111  8.95535714285714 3.81150793650794  8.95535714285714 3.64285714285714  C 8.95535714285714 3.47420634920635  8.91108630952381 3.33085317460317  8.82254464285714 3.21279761904762  C 8.73400297619048 3.09474206349206  8.62648809523809 3.03571428571429  8.5 3.03571428571429  C 7.70944940476191 3.03571428571429  7.03115699404762 3.41307043650794  6.46512276785714 4.16778273809524  C 5.89908854166667 4.92249503968254  5.61607142857143 5.82688492063492  5.61607142857143 6.88095238095238  C 5.61607142857143 7.04960317460317  5.66034226190476 7.19295634920635  5.74888392857143 7.31101190476191  C 5.8374255952381 7.42906746031746  5.94494047619048 7.48809523809524  6.07142857142857 7.48809523809524  C 6.19791666666667 7.48809523809524  6.30543154761905 7.42906746031746  6.39397321428571 7.31101190476191  C 6.48251488095238 7.19295634920635  6.52678571428571 7.04960317460317  6.52678571428571 6.88095238095238  C 6.52678571428571 6.15575396825397  6.71968005952381 5.5359623015873  7.10546875 5.02157738095238  C 7.49125744047619 4.50719246031746  7.95610119047619 4.25  8.5 4.25  C 8.62648809523809 4.25  8.73400297619048 4.19097222222222  8.82254464285714 4.07291666666667  Z M 12.2472098214286 0.885416666666667  C 12.348400297619 0.969742063492062  12.3989955357143 1.08358134920635  12.3989955357143 1.22693452380952  C 12.3989955357143 1.2859623015873  12.3958333333333 1.32390873015873  12.3895089285714 1.34077380952381  C 11.7191220238095 2.93452380952381  10.7198660714286 5.32514880952381  9.39174107142857 8.51264880952381  C 8.06361607142857 11.7001488095238  7.06752232142857 14.0865575396825  6.40345982142857 15.671875  L 5.93861607142857 16.797619047619  C 5.87537202380952 16.9325396825397  5.78683035714286 17  5.67299107142857 17  C 5.59709821428571 17  5.1733630952381 16.7048611111111  4.40178571428571 16.1145833333333  C 4.30059523809524 16.0302579365079  4.25 15.9122023809524  4.25 15.7604166666667  C 4.25 15.6592261904762  4.38913690476191 15.2924107142857  4.66741071428571 14.6599702380952  C 3.76302083333333 14.1118551587302  2.92978050595238 13.3824404761905  2.16768973214286 12.4717261904762  C 1.40559895833333 11.5610119047619  0.746279761904762 10.5280257936508  0.189732142857143 9.37276785714286  C 0.0632440476190476 9.11135912698413  0 8.82043650793651  0 8.5  C 0 8.17956349206349  0.0632440476190476 7.88864087301587  0.189732142857143 7.62723214285714  C 1.15736607142857 5.64558531746032  2.35900297619048 4.0813492063492  3.79464285714286 2.93452380952381  C 5.23028273809524 1.78769841269841  6.79873511904762 1.21428571428571  8.5 1.21428571428571  C 9.06287202380952 1.21428571428571  9.63206845238095 1.2859623015873  10.2075892857143 1.42931547619048  L 10.7198660714286 0.202380952380952  C 10.7831101190476 0.0674603174603172  10.8716517857143 0  10.9854910714286 0  C 11.0171130952381 0  11.0740327380952 0.025297619047619  11.15625 0.0758928571428569  C 11.2384672619048 0.126488095238095  11.3364955357143 0.191840277777776  11.4503348214286 0.271949404761905  C 11.5641741071429 0.352058531746031  11.6685267857143 0.430059523809524  11.7633928571429 0.505952380952381  C 11.8582589285714 0.581845238095238  11.9578683035714 0.659846230158727  12.0622209821429 0.739955357142857  C 12.1665736607143 0.820064484126983  12.2282366071429 0.868551587301586  12.2472098214286 0.885416666666667  Z M 12.6741071428571 5.81845238095238  C 12.7247023809524 6.19791666666667  12.75 6.55208333333333  12.75 6.88095238095238  C 12.75 8.0530753968254  12.5001860119048 9.1218998015873  12.0005580357143 10.0874255952381  C 11.5009300595238 11.0529513888889  10.8400297619048 11.7465277777778  10.0178571428571 12.1681547619048  L 12.6741071428571 5.81845238095238  Z M 16.8102678571429 7.62723214285714  C 16.936755952381 7.91393849206349  17 8.20486111111111  17 8.5  C 17 8.79513888888889  16.936755952381 9.08606150793651  16.8102678571429 9.37276785714286  C 16.5636160714286 9.9124503968254  16.2189360119048 10.5238095238095  15.7762276785714 11.2068452380952  C 14.8275669642857 12.6572420634921  13.7287016369048 13.7829861111111  12.4796316964286 14.5840773809524  C 11.2305617559524 15.3851686507937  9.90401785714286 15.7857142857143  8.5 15.7857142857143  L 9.20200892857143 14.1160714285714  C 10.5427827380952 13.9642857142857  11.783947172619 13.3866567460317  12.9255022321429 12.3831845238095  C 14.0670572916667 11.3797123015873  15.0204613095238 10.0853174603175  15.7857142857143 8.5  C 15.0584077380952 6.9905753968254  14.1666666666667 5.75099206349206  13.1104910714286 4.78125  L 13.7081473214286 3.36458333333333  C 14.3089657738095 3.90426587301587  14.8860677083333 4.54935515873016  15.439453125 5.29985119047619  C 15.9928385416667 6.05034722222222  16.4497767857143 6.82614087301587  16.8102678571429 7.62723214285714  Z " fill-rule="nonzero" fill="#000000" stroke="none" transform="matrix(1 0 0 1 150 -1 )" />
  </g>
</svg>